<?xml version="1.0" encoding="utf-8"?>
<svg width="16" height="16" viewBox="0 0 16 16" fill="none" xmlns="http://www.w3.org/2000/svg">
  <path d="M 8 15.11 C 7.772 15.11 7.553 15.027 7.381 14.877 C 6.735 14.312 6.112 13.781 5.562 13.313 L 5.559 13.31 C 3.947 11.937 2.555 10.75 1.587 9.582 C 0.504 8.275 0 7.037 0 5.683 C 0 4.369 0.451 3.156 1.269 2.268 C 2.098 1.37 3.234 0.875 4.47 0.875 C 5.393 0.875 6.239 1.167 6.984 1.743 C 7.359 2.033 7.7 2.389 8 2.804 C 8.3 2.389 8.641 2.033 9.016 1.743 C 9.761 1.167 10.607 0.875 11.53 0.875 C 12.766 0.875 13.903 1.37 14.731 2.268 C 15.549 3.156 16 4.369 16 5.683 C 16 7.037 15.496 8.275 14.413 9.582 C 13.445 10.75 12.053 11.936 10.441 13.31 C 9.89 13.779 8.228 15.11 8 15.11 Z" fill-opacity="0.75" style="paint-order: fill; fill: rgb(0, 0, 0);"/>
</svg>